{
	"asset":{
		"generator":"Khronos glTF Blender I/O v3.5.30",
		"version":"2.0"
	},
	"scene":0,
	"scenes":[
		{
			"name":"Scene",
			"nodes":[
				0,
				1,
				2,
				3,
				4,
				5,
				6,
				7,
				8
			]
		}
	],
	"nodes":[
		{
			"mesh":0,
			"name":"Cube",
			"scale":[
				3.6437160968780518,
				3.6437160968780518,
				0.7724828720092773
			],
			"translation":[
				-0.08060908317565918,
				-5.262726783752441,
				18.589309692382812
			]
		},
		{
			"mesh":1,
			"name":"Cube.001",
			"rotation":[
				0,
				0,
				-0.03644450381398201,
				0.999335765838623
			],
			"scale":[
				0.11257913708686829,
				1.764315128326416,
				0.1850000023841858
			],
			"translation":[
				5.979158878326416,
				0.9030864238739014,
				0.24922709167003632
			]
		},
		{
			"name":"Empty.001",
			"translation":[
				5.949009895324707,
				0.8970515727996826,
				0.24930910766124725
			]
		},
		{
			"name":"Empty.002",
			"scale":[
				1,
				0.7159134745597839,
				1
			],
			"translation":[
				4.973752975463867,
				0.9068009853363037,
				0.24930910766124725
			]
		},
		{
			"mesh":2,
			"name":"Cube.002",
			"rotation":[
				0,
				0,
				-0.03644450381398201,
				0.999335765838623
			],
			"scale":[
				0.11247716099023819,
				1.3554019927978516,
				0.1850000023841858
			],
			"translation":[
				5.003901481628418,
				0.911121129989624,
				0.24922709167003632
			]
		},
		{
			"name":"Empty.003",
			"rotation":[
				0,
				0,
				-0.9973644614219666,
				0.07255462557077408
			],
			"scale":[
				1,
				0.7159135341644287,
				1
			],
			"translation":[
				-4.1704864501953125,
				2.376063585281372,
				0.24930910766124725
			]
		},
		{
			"name":"Empty.004",
			"rotation":[
				0,
				0,
				-0.9973644614219666,
				0.07255463302135468
			],
			"translation":[
				-5.1368865966796875,
				2.2445647716522217,
				0.24930910766124725
			]
		},
		{
			"mesh":3,
			"name":"Cube.003",
			"rotation":[
				0,
				0,
				-0.9993460774421692,
				0.03615802526473999
			],
			"scale":[
				0.11247716099023819,
				1.3554019927978516,
				0.1850000023841858
			],
			"translation":[
				-4.199692726135254,
				2.3674256801605225,
				0.24922709167003632
			]
		},
		{
			"mesh":4,
			"name":"Cube.004",
			"rotation":[
				0,
				0,
				-0.9993460774421692,
				0.03615802153944969
			],
			"scale":[
				0.11257914453744888,
				1.7643152475357056,
				0.1850000023841858
			],
			"translation":[
				-5.165844917297363,
				2.2342300415039062,
				0.24922709167003632
			]
		}
	],
	"materials":[
		{
			"doubleSided":true,
			"name":"Material",
			"pbrMetallicRoughness":{
				"baseColorFactor":[
					1,
					0.5782344937324524,
					0,
					1
				],
				"metallicFactor":0,
				"roughnessFactor":0.5
			}
		},
		{
			"doubleSided":true,
			"name":"Material.002",
			"pbrMetallicRoughness":{
				"baseColorFactor":[
					0.27382901310920715,
					0.27382901310920715,
					0.27382901310920715,
					1
				],
				"metallicFactor":0,
				"roughnessFactor":0.5
			}
		},
		{
			"doubleSided":true,
			"name":"Material.001",
			"pbrMetallicRoughness":{
				"baseColorFactor":[
					0.27382901310920715,
					0.27382901310920715,
					0.27382901310920715,
					1
				],
				"metallicFactor":0,
				"roughnessFactor":0.5
			}
		},
		{
			"doubleSided":true,
			"name":"Material.003",
			"pbrMetallicRoughness":{
				"baseColorFactor":[
					0.27382901310920715,
					0.27382901310920715,
					0.27382901310920715,
					1
				],
				"metallicFactor":0,
				"roughnessFactor":0.5
			}
		},
		{
			"doubleSided":true,
			"name":"Material.004",
			"pbrMetallicRoughness":{
				"baseColorFactor":[
					0.27382901310920715,
					0.27382901310920715,
					0.27382901310920715,
					1
				],
				"metallicFactor":0,
				"roughnessFactor":0.5
			}
		}
	],
	"meshes":[
		{
			"name":"Cube",
			"primitives":[
				{
					"attributes":{
						"POSITION":0,
						"TEXCOORD_0":1,
						"NORMAL":2
					},
					"indices":3,
					"material":0
				}
			]
		},
		{
			"name":"Cube.002",
			"primitives":[
				{
					"attributes":{
						"POSITION":4,
						"TEXCOORD_0":5,
						"NORMAL":6
					},
					"indices":7,
					"material":1
				}
			]
		},
		{
			"name":"Cube.003",
			"primitives":[
				{
					"attributes":{
						"POSITION":8,
						"TEXCOORD_0":9,
						"NORMAL":10
					},
					"indices":7,
					"material":2
				}
			]
		},
		{
			"name":"Cube.004",
			"primitives":[
				{
					"attributes":{
						"POSITION":11,
						"TEXCOORD_0":12,
						"NORMAL":13
					},
					"indices":7,
					"material":3
				}
			]
		},
		{
			"name":"Cube.005",
			"primitives":[
				{
					"attributes":{
						"POSITION":14,
						"TEXCOORD_0":15,
						"NORMAL":16
					},
					"indices":7,
					"material":4
				}
			]
		}
	],
	"accessors":[
		{
			"bufferView":0,
			"componentType":5126,
			"count":3212,
			"max":[
				1.0817090272903442,
				3.1624603271484375,
				-21.903175354003906
			],
			"min":[
				-1.8902266025543213,
				-0.44284433126449585,
				-25.209531784057617
			],
			"type":"VEC3"
		},
		{
			"bufferView":1,
			"componentType":5126,
			"count":3212,
			"type":"VEC2"
		},
		{
			"bufferView":2,
			"componentType":5126,
			"count":3212,
			"type":"VEC3"
		},
		{
			"bufferView":3,
			"componentType":5123,
			"count":17064,
			"type":"SCALAR"
		},
		{
			"bufferView":4,
			"componentType":5126,
			"count":24,
			"max":[
				1,
				1,
				1
			],
			"min":[
				-1,
				-1,
				-1
			],
			"type":"VEC3"
		},
		{
			"bufferView":5,
			"componentType":5126,
			"count":24,
			"type":"VEC2"
		},
		{
			"bufferView":6,
			"componentType":5126,
			"count":24,
			"type":"VEC3"
		},
		{
			"bufferView":7,
			"componentType":5123,
			"count":36,
			"type":"SCALAR"
		},
		{
			"bufferView":8,
			"componentType":5126,
			"count":24,
			"max":[
				1,
				1,
				1
			],
			"min":[
				-1,
				-1,
				-1
			],
			"type":"VEC3"
		},
		{
			"bufferView":9,
			"componentType":5126,
			"count":24,
			"type":"VEC2"
		},
		{
			"bufferView":10,
			"componentType":5126,
			"count":24,
			"type":"VEC3"
		},
		{
			"bufferView":11,
			"componentType":5126,
			"count":24,
			"max":[
				1,
				1,
				1
			],
			"min":[
				-1,
				-1,
				-1
			],
			"type":"VEC3"
		},
		{
			"bufferView":12,
			"componentType":5126,
			"count":24,
			"type":"VEC2"
		},
		{
			"bufferView":13,
			"componentType":5126,
			"count":24,
			"type":"VEC3"
		},
		{
			"bufferView":14,
			"componentType":5126,
			"count":24,
			"max":[
				1,
				1,
				1
			],
			"min":[
				-1,
				-1,
				-1
			],
			"type":"VEC3"
		},
		{
			"bufferView":15,
			"componentType":5126,
			"count":24,
			"type":"VEC2"
		},
		{
			"bufferView":16,
			"componentType":5126,
			"count":24,
			"type":"VEC3"
		}
	],
	"bufferViews":[
		{
			"buffer":0,
			"byteLength":38544,
			"byteOffset":0,
			"target":34962
		},
		{
			"buffer":0,
			"byteLength":25696,
			"byteOffset":38544,
			"target":34962
		},
		{
			"buffer":0,
			"byteLength":38544,
			"byteOffset":64240,
			"target":34962
		},
		{
			"buffer":0,
			"byteLength":34128,
			"byteOffset":102784,
			"target":34963
		},
		{
			"buffer":0,
			"byteLength":288,
			"byteOffset":136912,
			"target":34962
		},
		{
			"buffer":0,
			"byteLength":192,
			"byteOffset":137200,
			"target":34962
		},
		{
			"buffer":0,
			"byteLength":288,
			"byteOffset":137392,
			"target":34962
		},
		{
			"buffer":0,
			"byteLength":72,
			"byteOffset":137680,
			"target":34963
		},
		{
			"buffer":0,
			"byteLength":288,
			"byteOffset":137752,
			"target":34962
		},
		{
			"buffer":0,
			"byteLength":192,
			"byteOffset":138040,
			"target":34962
		},
		{
			"buffer":0,
			"byteLength":288,
			"byteOffset":138232,
			"target":34962
		},
		{
			"buffer":0,
			"byteLength":288,
			"byteOffset":138520,
			"target":34962
		},
		{
			"buffer":0,
			"byteLength":192,
			"byteOffset":138808,
			"target":34962
		},
		{
			"buffer":0,
			"byteLength":288,
			"byteOffset":139000,
			"target":34962
		},
		{
			"buffer":0,
			"byteLength":288,
			"byteOffset":139288,
			"target":34962
		},
		{
			"buffer":0,
			"byteLength":192,
			"byteOffset":139576,
			"target":34962
		},
		{
			"buffer":0,
			"byteLength":288,
			"byteOffset":139768,
			"target":34962
		}
	],
	"buffers":[
		{
			"byteLength":140056,
			"uri":"data:application/octet-stream;base64,"
		}
	]
}
